<?xml version="1.0" standalone="no"?>
<!DOCTYPE svg PUBLIC "-//W3C//DTD SVG 20010904//EN"
 "http://www.w3.org/TR/2001/REC-SVG-20010904/DTD/svg10.dtd">
<svg version="1.0" xmlns="http://www.w3.org/2000/svg"
 width="3190.000000pt" height="3190.000000pt" viewBox="0 0 3190.000000 3190.000000"
 preserveAspectRatio="xMidYMid meet">
<metadata>
Created by potrace 1.11, written by Peter Selinger 2001-2013
</metadata>
<g transform="translate(0.000000,3190.000000) scale(0.100000,-0.100000)"
fill="#000000" stroke="none">
<path d="M15450 31804 c-36 -2 -159 -8 -275 -14 -2448 -127 -4876 -842 -7005
-2063 -1512 -867 -2846 -1952 -4015 -3267 -803 -902 -1536 -1956 -2117 -3040
-1031 -1924 -1652 -4048 -1822 -6230 -36 -461 -41 -603 -41 -1255 0 -652 5
-794 41 -1255 335 -4294 2402 -8257 5743 -11010 2495 -2056 5559 -3300 8771
-3559 509 -42 634 -46 1310 -46 676 0 801 4 1310 46 3212 259 6276 1503 8771
3559 640 527 1242 1108 1804 1740 803 902 1536 1956 2117 3040 1032 1925 1654
4056 1823 6235 31 401 35 553 35 1250 0 697 -4 849 -35 1250 -332 4290 -2402
8261 -5744 11015 -2476 2041 -5517 3282 -8706 3555 -465 39 -652 47 -1275 50
-344 1 -654 1 -690 -1z m11200 -6134 l0 -1000 -2192 0 -2193 0 3 -677 c2 -373
14 -2530 26 -4793 l22 -4115 2202 -4402 c1211 -2422 2202 -4406 2202 -4411 0
-6 -1762 -892 -1775 -892 -3 0 -590 1169 -1305 2598 l-1300 2597 6 -780 c10
-1604 25 -4418 22 -4420 -2 -2 -444 -7 -983 -13 -539 -5 -989 -11 -999 -13
-17 -3 -326 613 -2285 4558 l-2266 4562 -2475 1 -2475 0 -2275 -4550 c-1251
-2502 -2276 -4550 -2278 -4550 -1 0 -403 200 -892 445 l-890 445 5103 10205
5102 10205 5947 0 5948 0 0 -1000z"/>
<path d="M17531 24663 c0 -5 623 -1252 1384 -2773 l1384 -2765 0 350 c0 270
-27 5181 -29 5193 -1 6 -2740 1 -2739 -5z"/>
<path d="M13762 20225 c-1029 -2060 -1872 -3747 -1872 -3750 0 -3 1164 -5
2588 -5 l2587 0 1235 -2488 c1900 -3828 2045 -4118 2049 -4108 2 6 -1 1070 -8
2365 l-11 2356 -2343 4688 c-1288 2578 -2344 4687 -2347 4687 -3 0 -848 -1685
-1878 -3745z"/>
</g>
</svg>
